<svg id="Layer_1" data-name="Layer 1" xmlns="http://www.w3.org/2000/svg" viewBox="0 0 212.69238 49.08951"><defs><style>.cls-1{fill:#fff;}</style></defs><title>brand</title><path class="cls-1" d="M47.00021,2.68975a4.1596,4.1596,0,0,1-.75145,2.27318,16.63947,16.63947,0,0,1-1.772,2.25385q-1.02136,1.09818-2.119,2.119a23.10492,23.10492,0,0,0-1.79137,1.83,16.84411,16.84411,0,0,1-1.79189,1.75323q-1.17578,1.02135-2.65831,2.15769-1.48383,1.13658-3.15945,2.21517-1.67589,1.07937-3.25561,1.90685a20.15257,20.15257,0,0,1-2.96663,1.29075,4.94451,4.94451,0,0,1-2.31133.30832l-.96361,1.19459c.12855-.0256.25658-.04494.38565-.058.128-.01255.25606-.01934.38514-.01934a6.324,6.324,0,0,1,2.38866.52048,5.17732,5.17732,0,0,1,2.00353,1.36757,3.1297,3.1297,0,0,1,.77027,1.46424,15.011,15.011,0,0,0,.4238,1.61787q.23124.77132.50115,1.56039a5.04381,5.04381,0,0,1,.26964,1.63774,4.46317,4.46317,0,0,1-.09615.77027,7.38685,7.38685,0,0,1-.26964,1.00228,3.61579,3.61579,0,0,1-.44314.88524.76015.76015,0,0,1-.61664.38565,1.00236,1.00236,0,0,1-.98243-.67411,8.24609,8.24609,0,0,1-.48181-1.69522q-.19282-1.02215-.40446-2.19584a7.89175,7.89175,0,0,0-.73212-2.19688,4.542,4.542,0,0,0-1.50239-1.69521,4.747,4.747,0,0,0-2.71632-.6736h-.50062q-.84813,1.04017-2.08087,2.697-1.233,1.65706-2.697,3.50539-1.46424,1.8499-3.08212,3.69875a42.22471,42.22471,0,0,1-3.23627,3.333,20.833,20.833,0,0,1-3.15946,2.42681,5.59146,5.59146,0,0,1-2.88929.94481,2.94371,2.94371,0,0,1-1.77255-.55915,1.89492,1.89492,0,0,1-.77027-1.63773,2.88281,2.88281,0,0,1,.578-1.42557,22.56422,22.56422,0,0,1,1.46372-1.96487q.88575-1.07857,1.9842-2.21465,1.09818-1.13658,2.15769-2.177,1.059-1.041,1.94552-1.86871.88577-.82932,1.34875-1.25208.73134-.65529,1.44491-1.36808a11.19554,11.19554,0,0,1,1.483-1.25208,14.98577,14.98577,0,0,1,6.4344-2.35L23.4595,19.5651a1.88566,1.88566,0,0,1-.42381-1.1946,3.00836,3.00836,0,0,1,.32765-1.52172,2.03888,2.03888,0,0,1,.88628-.82827,3.903,3.903,0,0,1,1.29075-.347,14.37528,14.37528,0,0,1,1.50239-.07682,5.28458,5.28458,0,0,0,.636-.67411q.28847-.36606.59678-.75146,1.61865-2.00274,3.4291-3.89157.69371-.73134,1.59906-1.73337.90457-1.00176,1.90686-2.1002,1.00176-1.0974,2.119-2.15717A27.5244,27.5244,0,0,1,39.5839,2.3621,11.99146,11.99146,0,0,1,41.85656.9752a5.234,5.234,0,0,1,2.177-.51995,3.67616,3.67616,0,0,1,1.00177.15416,3.31286,3.31286,0,0,1,.9631.44313,2.80449,2.80449,0,0,1,.71278.69345A1.58,1.58,0,0,1,47.00021,2.68975Zm-27.50911,21.73a12.9436,12.9436,0,0,0-4.08388,1.73388,14.46123,14.46123,0,0,0-1.27141,1.05873q-.92416.82932-2.09969,1.946-1.17578,1.11777-2.44667,2.36933Q8.318,32.78037,7.25879,33.89709q-1.06056,1.11777-1.75322,1.946a2.81493,2.81493,0,0,0-.69345,1.05977,1.27182,1.27182,0,0,0,.38513.84761,1.10164,1.10164,0,0,0,.80946.42328A2.82564,2.82564,0,0,0,7.066,37.98149a4.21614,4.21614,0,0,0,.90562-.50062q.42327-.30884.8476-.6553.42328-.34645.80894-.694.96258-.80893,1.71455-1.50187.75093-.69449,1.42557-1.42557.67333-.73212,1.3289-1.54158.65531-.80893,1.42557-1.81018,1.04017-1.34979,1.98419-2.71632Q18.45067,25.769,19.4911,24.41977Zm5.89511-7.32068q-.30884,0-.55863.48181a5.49084,5.49084,0,0,0-.32765.71278l1.04044-1.19459ZM44.26456,3.807a.77336.77336,0,0,0-.30779-.578.94574.94574,0,0,0-.61664-.26965,8.82543,8.82543,0,0,0-2.21517.231,5.21455,5.21455,0,0,0-1.86871,1.04043,17.67157,17.67157,0,0,0-1.73388,1.65655q-.809.88732-1.59907,1.81122-.79013.92417-1.56039,1.84938-.77053.92417-1.5792,1.8107-1.65708,1.77229-3.2368,3.69875-.84735,1.00176-1.7527,1.92619-.90613.92495-1.79189,1.92619,1.117-.34645,2.177-.73159a15.48371,15.48371,0,0,0,2.061-.92495A30.04285,30.04285,0,0,0,35.095,14.2098a30.28736,30.28736,0,0,0,4.19989-3.89157,17.07942,17.07942,0,0,1,1.44439-1.42557q.86694-.76975,1.63773-1.59907a11.626,11.626,0,0,0,1.32889-1.714A3.30463,3.30463,0,0,0,44.26456,3.807Z" transform="translate(-2.15381 -0.45525)"/><path class="cls-1" d="M43.64793,19.0258a1.19012,1.19012,0,0,1,.84761.289.828.828,0,0,1,.30831.59677,3.14175,3.14175,0,0,1-.44314,1.65707,5.21825,5.21825,0,0,1-1.13659,1.30956,11.66578,11.66578,0,0,1-1.541,1.0791q-.84813.50089-1.6184,1.00177a5.17715,5.17715,0,0,1-.88576.40447q-.65609.25083-1.38742.578a13.272,13.272,0,0,0-1.29075.6553c-.37259.21844-.55862.42956-.55862.63545a.37267.37267,0,0,0,.17349.28846,1.07487,1.07487,0,0,0,.38513.19335c.1411.03867.28271.07107.42381.09615a1.90687,1.90687,0,0,0,.289.03867,12.80479,12.80479,0,0,0,3.333-.53929A17.9549,17.9549,0,0,0,44.49554,25.652a1.16168,1.16168,0,0,1,.53929-.17245c.10242.01254.15416.04494.15416.09615a.44225.44225,0,0,1-.13483.231,1.96618,1.96618,0,0,1-.289.26964A16.03158,16.03158,0,0,1,41.23993,28.06a12.29991,12.29991,0,0,1-4.79667.86746,2.1423,2.1423,0,0,1-1.6184-.50062,5.25414,5.25414,0,0,1-.84761-1.3106.57363.57363,0,0,1,0-.42328,5.41169,5.41169,0,0,1,.2315-.694,8.452,8.452,0,0,1,.3658-.79012q.21164-.40448.40447-.75041a11.73622,11.73622,0,0,1,2.2157-2.60083,15.45417,15.45417,0,0,1,2.71579-1.946,6.71879,6.71879,0,0,1,1.92671-.71279A9.81594,9.81594,0,0,1,43.64793,19.0258Zm-1.11726,1.61788a3.63889,3.63889,0,0,0-1.48357.40447,10.32285,10.32285,0,0,0-1.73336,1.04043A13.61014,13.61014,0,0,0,37.734,23.43734a5.89441,5.89441,0,0,0-1.05977,1.36808.38857.38857,0,0,0-.07682.30728.25314.25314,0,0,0,.17349.116.8432.8432,0,0,0,.48129-.116,7.30542,7.30542,0,0,0,.75145-.32713q.5197-.24927,1.19407-.61664.67412-.36527,1.38743-.7896.71252-.42328,1.30956-.82827a7.64887,7.64887,0,0,0,.98243-.77079q.38487-.36528.38565-.5973Q43.26279,20.64447,42.53067,20.64368Z" transform="translate(-2.15381 -0.45525)"/><path class="cls-1" d="M58.48107,18.13953q-1.07937,1.04017-2.466,2.46548-1.38742,1.42662-2.65831,2.73565-1.27141,1.30983-2.19636,2.29251a13.2475,13.2475,0,0,0-1.03991,1.17474q-.46248.42484-1.31009,1.36809-.84813.94376-1.96486,2.0422-1.11777,1.0974-2.408,2.15717a13.44612,13.44612,0,0,1-2.6395,1.71507.73059.73059,0,0,1-.48129.05748.75229.75229,0,0,1-.36632-.231.78961.78961,0,0,1-.1923-.347.29227.29227,0,0,1,.07682-.28846q2.65882-2.42838,5.163-4.79719A43.76012,43.76012,0,0,0,50.58243,23.418a.21753.21753,0,0,0,.01933-.2315.2529.2529,0,0,0-.25031-.11548,3.34331,3.34331,0,0,0-.7896.36632q-.67489.36606-1.52225.86642-.84733.50166-1.65654.96362-.80894.46247-1.1946.69292-.61611.348-.90509.1735-.28925-.17245.25031-.48181.61611-.34647,2.09969-1.11621,1.48305-.77131,3.39043-1.98472a42.39521,42.39521,0,0,0,4.00706-2.92848,27.07586,27.07586,0,0,0,3.91039-3.94906,3.171,3.171,0,0,0,.26965-.75093q.0384-.25-.05748-.32765a.432.432,0,0,0-.30832-.058c-.14162.01359-.289.01934-.44314.01934q-1.58025.0776-3.7949.07734-2.21595,0-5.52879.26964-2.31158.19283-4.98949.19231h-4.9895q-1.50264,0-2.98544-.01881-1.483-.01961-2.986-.01934a.64212.64212,0,0,1-.405-.13482.38736.38736,0,0,1-.173-.30832.37837.37837,0,0,1,.21164-.30831,1.4977,1.4977,0,0,1,.75145-.13483h5.93326q2.00353,0,4.33419-.058,2.332-.05723,4.33472-.13483,2.34921-.11521,3.98773-.21164,1.63668-.09563,2.86995-.19282,1.233-.09564,2.21569-.15416.98217-.058,1.9842-.05749h1.23274a3.23586,3.23586,0,0,0,.82828-.09667,2.355,2.355,0,0,0,.71278-.32713q.34647-.23124.92495-.6553,1.04018-.84657,2.27318-1.92619,1.23222-1.07859,2.38866-2.04221,1.15541-.96257,2.119-1.63721a3.00853,3.00853,0,0,1,1.46372-.67411q.5393,0,.55863.4238.01959.42406.01933.77027,0,.19362-.59677.80894-.59808.61689-1.44491,1.36809-.84813.75093-1.79189,1.52172-.94455.77131-1.63721,1.34875-.46248.38487-.26965.57744a1.011,1.011,0,0,0,.77027.15416q.57849-.03764,1.15593-.05748.57847-.01882,1.15592-.01934,2.08035,0,4.10322.03867a22.0481,22.0481,0,0,1,4.06454.46195,15.75832,15.75832,0,0,1,1.63774.25084,5.98022,5.98022,0,0,1,1.07858.34646q.48129.21243.40447.52a.977.977,0,0,1-.48129.578,1.10679,1.10679,0,0,1-.61663.058,2.22489,2.22489,0,0,1-.65478-.231,5.37152,5.37152,0,0,0-.636-.289,10.08443,10.08443,0,0,0-2.46548-.48181q-1.50265-.13482-3.0053-.13483t-2.755.03867q-1.25259.03842-1.71455.03815a12.14142,12.14142,0,0,0-1.79136.13535q-.90536.13482-1.75323.25031-.19282.0384-.48128.11549a4.47513,4.47513,0,0,0-1.05977.61663Z" transform="translate(-2.15381 -0.45525)"/><path class="cls-1" d="M96.85316,25.38234c.1019,0,.1667.01986.1923.05853s.01934.08988-.01933.15363a1.31,1.31,0,0,1-.32713.28951q-.77131.5001-1.48358.88523a4.73543,4.73543,0,0,1-.7896.38566q-1.11777.38565-1.81123.63544c-.462.16827-.90509.31459-1.32889.44314a3.84834,3.84834,0,0,1-.82827.19335,1.08642,1.08642,0,0,1-.73212-.38565c-.25711-.25606-.38514-.44941-.38514-.578a1.15279,1.15279,0,0,1,.03815-.1923c.02561-.10243.05121-.21844.07734-.347a11.522,11.522,0,0,1,.9631-.92495A11.3851,11.3851,0,0,0,91.536,24.88172q.26886-.5001.48181-.82827a3.91429,3.91429,0,0,0,.40447-1.05925,1.64891,1.64891,0,0,0,0-.71279q-.07761-.44288-.38514-.44314a3.29463,3.29463,0,0,0-1.29074.30832,7.14276,7.14276,0,0,0-1.05977.53929q-.925.57771-1.7527,1.05925a5.428,5.428,0,0,0-1.36809,1.09792,3.38257,3.38257,0,0,1-.98243.71278,4.21448,4.21448,0,0,0-1.05925.75146,2.866,2.866,0,0,1-.405.30832q-.28847.19283-.52.347a9.2378,9.2378,0,0,0-1.00176.79013q-.54008.48128-1.09792.9239a9.9333,9.9333,0,0,1-1.07859.75146,1.93854,1.93854,0,0,1-.983.30831.44821.44821,0,0,1-.40447-.21216.71573.71573,0,0,1-.13482-.3658q-.07761-.116.4238-.77027.5009-.6553,1.27142-1.54158.77052-.88575,1.59906-1.84885.82775-.96258,1.36756-1.73389a.0876.0876,0,0,0-.09615-.01933.42178.42178,0,0,1-.13482.01933L77.82013,26.346a.38826.38826,0,0,1-.52-.09615q-.21243-.25085.25031-.48181,1.46346-.76976,2.639-1.54158,1.175-.76976,2.33118-1.54054a7.267,7.267,0,0,0,1.11725-.94428,8.3994,8.3994,0,0,1,1.07859-.94376.48531.48531,0,0,1,.289-.1735,1.52545,1.52545,0,0,0,.44314-.21164,12.2511,12.2511,0,0,0,1.09792-.8476q.6357-.53929,1.32941-1.15593.69372-.61611,1.36757-1.2134.67412-.5973,1.25207-1.05978.07683-.07682.46248-.4238.38487-.34647.80894-.77079-1.65629-.11523-3.3131-.30779-1.65706-.19284-3.31361-.347A12.77356,12.77356,0,0,0,82.829,15.98184a26.93783,26.93783,0,0,0-1.9842,2.0422q-.94455,1.07858-1.84938,2.21517-.90613,1.13659-1.8687,2.177-1.11778,1.19459-2.31185,2.27317-1.1946,1.07859-2.42734,2.15717-.42406.34647-1.25208,1.1946-.82852.84655-1.73388,1.714-.90535.867-1.73336,1.52277a2.44865,2.44865,0,0,1-1.29075.65426q-.30805,0-.347-.15364a2.33573,2.33573,0,0,1-.03867-.50062,1.3994,1.3994,0,0,1,.27017-.88628,5.43264,5.43264,0,0,1,.65478-.694q1.00256-.92495,1.96486-1.83a16.18243,16.18243,0,0,1,2.119-1.67536,7.07793,7.07793,0,0,0,1.73389-1.6001,19.05178,19.05178,0,0,1,1.57973-1.79085q.5385-.53929,1.09791-1.0211a13.20328,13.20328,0,0,0,1.05925-1.0211,29.801,29.801,0,0,0,2.48534-3.17827,29.66971,29.66971,0,0,1,2.48482-3.17879q-1.19459-.30805-2.08035-.50062-.88653-.19284-1.57972-.32765-.69372-.13484-1.29075-.21165-.5973-.07681-1.25208-.19282-.38565-.07683-1.09792-.1735-.71331-.09563-1.52172-.1923-.80972-.09642-1.52225-.1735-.71329-.07681-1.09791-.07734-.30885,0-1.04044.01934a7.83979,7.83979,0,0,0-1.50239.19283,3.57275,3.57275,0,0,0-1.34823.59729,1.39414,1.39414,0,0,0-.578,1.19408.56755.56755,0,0,0,.231.48181,2.7047,2.7047,0,0,0,.53929.30831,4.0752,4.0752,0,0,1,.578.30779.9475.9475,0,0,1,.38513.52048.58852.58852,0,0,1-.50062.26965,3.9429,3.9429,0,0,1-1.00176-.21216,10.18123,10.18123,0,0,1-1.3869-.5393,7.07092,7.07092,0,0,1-1.23275-.73212q-.53928-.40446-.53981-.75093a1.14448,1.14448,0,0,1,.38566-.80946,3.80977,3.80977,0,0,1,.88575-.65478,7.37662,7.37662,0,0,1,.98243-.44314,5.684,5.684,0,0,1,.67464-.21164q1.11777-.19283,2.13836-.30831a17.8858,17.8858,0,0,1,2.02234-.11549q.61611,0,1.57973.07682.96257.07759,2.02286.17349,1.059.09642,2.02287.21164.96258.116,1.57921.19283a23.70479,23.70479,0,0,1,2.44667.44314,32.89191,32.89191,0,0,0,3.44844.55862q.50008-.42327.86694-.79012.36528-.36528.71278-.7316.34647-.36606.73212-.73212a11.11573,11.11573,0,0,1,.88576-.75145A8.75087,8.75087,0,0,0,87.587,8.7965q.78934-.94376,1.6184-1.8107a11.21129,11.21129,0,0,1,1.7527-1.50291,3.46588,3.46588,0,0,1,2.00353-.63545,1.84265,1.84265,0,0,1,.71279.1735.60627.60627,0,0,1,.40446.59677,1.83974,1.83974,0,0,1-.48128.82828q-.48287.59808-1.23327,1.36808-.75093.77131-1.67588,1.61788-.92495.84813-1.8107,1.63773-.88655.79012-1.6184,1.40624a11.75342,11.75342,0,0,1-1.15592.88627q1.69546.07761,3.35228.3078,1.65628.23124,3.35176.30831.42329-.42327,1.23274-1.13659.80973-.71252,1.67641-1.46371.86616-.75173,1.61787-1.40624.75172-.6553,1.09792-.92495.53929-.42327,1.15593-.86694.61611-.44209,1.21393-.84761.5965-.40446,1.05924-.67411a3.25835,3.25835,0,0,1,.61664-.30832,1.64866,1.64866,0,0,1,.38513-.03867.85953.85953,0,0,1,.38513.07734,1.68931,1.68931,0,0,1,.53982.42381c.25606.2571.38513.44941.38513.578a.72528.72528,0,0,1-.289.46247,7.91566,7.91566,0,0,0-.55863.57744,4.18246,4.18246,0,0,1-.75145.636q-.51969.36684-1.11725.73212-.5981.36684-1.17526.69345-.57771.32765-.92443.55863-.46248.38565-.88628.73212-.34646.30884-.69345.578a5.95629,5.95629,0,0,1-.53929.38513q-.0776.07761-.48181.44314-.40446.36684-.94376.7896a28.26621,28.26621,0,0,1,4.29605.01934,25.201,25.201,0,0,0,4.29552-.01934,26.458,26.458,0,0,1,4.0264-.07681q1.98315.11522,4.02587.03867,1.61789-.07683,3.15946-.19283,1.54105-.116,3.15946-.26965a.7849.7849,0,0,1,.462.13483.52074.52074,0,0,1,.231.30831.34106.34106,0,0,1-.115.32713.94464.94464,0,0,1-.578.19283q-1.61789.11523-3.21694.13482t-3.21694.09615q-8.93909.34725-17.839.347a1.09972,1.09972,0,0,1-.231.19283.44371.44371,0,0,0-.11549.07682c-.02612.02612-.10973.09615-.25083.21216q-.21163.17323-.462.40447c-.16775.15416-.32765.29525-.48181.4238s-.2571.21844-.30832.26965A12.43005,12.43005,0,0,0,89.995,18.486q-1.04017,1.00256-2.08035,2.00353a9.7279,9.7279,0,0,0-.94428.82827q-.44288.44367-.90509.867a1.39667,1.39667,0,0,0-.4238.36632,2.82913,2.82913,0,0,1-.347.40447q-.88654.88653-1.69522,1.81018-.80894.92495-1.69521,2.00353a.369.369,0,0,0,.26964.116,1.73906,1.73906,0,0,0,.46248-.21216,7.07552,7.07552,0,0,0,.96309-.67412q.88576-.65373,1.79137-1.3869.90535-.73212,1.86871-1.3869a9.49718,9.49718,0,0,0,1.27141-.86694,7.14834,7.14834,0,0,1,1.1946-.7896q.92494-.42406,1.7527-.75146a3.916,3.916,0,0,1,1.36808-.32765q1.001,0,1.27141.44314a2.68247,2.68247,0,0,1,.30832,1.25208,2.5133,2.5133,0,0,1-.30832.90561,13.802,13.802,0,0,1-.73212,1.30956q-.42406.67569-.82827,1.25208a4.05928,4.05928,0,0,1-.5973.73264c-.10294.28323-.01306.42328.26965.42328a4.69506,4.69506,0,0,0,1.0211-.13482q.59652-.13326,1.25208-.32713a4.65715,4.65715,0,0,0,.73212-.28846c.231-.116.475-.23725.73212-.36684A2.72739,2.72739,0,0,1,96.85316,25.38234Z" transform="translate(-2.15381 -0.45525)"/><path class="cls-1" d="M105.6757,19.0258a1.19011,1.19011,0,0,1,.84761.289.828.828,0,0,1,.30831.59677,3.14175,3.14175,0,0,1-.44314,1.65707,5.21841,5.21841,0,0,1-1.13658,1.30956,11.66657,11.66657,0,0,1-1.54106,1.0791q-.84813.50089-1.6184,1.00177a5.17715,5.17715,0,0,1-.88576.40447q-.65609.25083-1.38742.578a13.272,13.272,0,0,0-1.29075.6553c-.37259.21844-.55862.42956-.55862.63545a.37267.37267,0,0,0,.17349.28846,1.07487,1.07487,0,0,0,.38513.19335c.1411.03867.28272.07107.42381.09615a1.907,1.907,0,0,0,.289.03867,12.80479,12.80479,0,0,0,3.333-.53929,17.9549,17.9549,0,0,0,3.94906-1.65759,1.16168,1.16168,0,0,1,.53929-.17245c.10242.01254.15416.04494.15416.09615a.44218.44218,0,0,1-.13483.231,1.96618,1.96618,0,0,1-.289.26964A16.03158,16.03158,0,0,1,103.2677,28.06a12.29991,12.29991,0,0,1-4.79667.86746,2.1423,2.1423,0,0,1-1.6184-.50062,5.25385,5.25385,0,0,1-.8476-1.3106.57353.57353,0,0,1,0-.42328,5.41,5.41,0,0,1,.23149-.694,8.45716,8.45716,0,0,1,.3658-.79012q.21165-.40448.40447-.75041a11.73649,11.73649,0,0,1,2.2157-2.60083,15.45454,15.45454,0,0,1,2.71579-1.946,6.71884,6.71884,0,0,1,1.92672-.71279A9.81584,9.81584,0,0,1,105.6757,19.0258Zm-1.11725,1.61788a3.63889,3.63889,0,0,0-1.48358.40447,10.32285,10.32285,0,0,0-1.73336,1.04043,13.611,13.611,0,0,0-1.57973,1.34876A5.89468,5.89468,0,0,0,98.702,24.80542a.38857.38857,0,0,0-.07682.30728.25314.25314,0,0,0,.17349.116.8432.8432,0,0,0,.48129-.116,7.30628,7.30628,0,0,0,.75146-.32713q.51969-.24927,1.19407-.61664.67412-.36527,1.38742-.7896.71251-.42328,1.30956-.82827a7.64817,7.64817,0,0,0,.98243-.77079q.38487-.36528.38566-.5973Q105.29057,20.64447,104.55845,20.64368Z" transform="translate(-2.15381 -0.45525)"/><path class="cls-1" d="M118.81415,19.3336a1.5092,1.5092,0,0,1,.49957-.11549.91046.91046,0,0,1,.44314.11549.52011.52011,0,0,1,.21321.50114.979.979,0,0,1-.32817.61663c-.21948.231-.462.46875-.7316.71279s-.52048.48129-.7525.71278a.95338.95338,0,0,0-.347.57744,1.08464,1.08464,0,0,1,.11706.13483c.02508.03867.08988.058.1923.058a1.84362,1.84362,0,0,0,.94272-.4238q.59886-.42328,1.273-.90562.67412-.48128,1.38585-.90509a2.58219,2.58219,0,0,1,1.2918-.4238,1.44093,1.44093,0,0,1,.57691.13482.43748.43748,0,0,1,.30936.40447,2.12941,2.12941,0,0,1-.3658.925,13.6969,13.6969,0,0,1-.82984,1.23274c-.30727.41126-.60409.77706-.88627,1.09792q-.42328.48207-.5393.5973l.15468.115a6.77875,6.77875,0,0,0,1.88753-1.11673q.88731-.73134,1.714-1.4449a15.68709,15.68709,0,0,1,1.6576-1.25208,2.98755,2.98755,0,0,1,1.63668-.53929c.35953,0,.579.12228.65635.3658a2.07267,2.07267,0,0,1,.115.59729,9.0707,9.0707,0,0,1-.462.80894q-.464.77132-1.02214,1.79189t-1.02006,2.00353a3.9294,3.9294,0,0,0-.462,1.40572.42274.42274,0,0,0,.28846.42432,1.96621,1.96621,0,0,0,.32817.115,6.26094,6.26094,0,0,0,1.944-.26965,9.14806,9.14806,0,0,0,1.4841-.61663q.80893-.46091,1.52172-.88523a3.00666,3.00666,0,0,1,.86747-.42433c.15468,0,.22993.0648.22993.19231,0,.12959-.14632.28323-.44314.463-.29473.17977-.533.3334-.71279.462a3.85144,3.85144,0,0,1-.51838.347c-.29682.17977-.5602.33445-.79013.462a1.94235,1.94235,0,0,1-.30936.1735c-.17976.09092-.37207.17976-.57692.26964-.20694.09093-.393.17977-.5581.26965a1.34106,1.34106,0,0,1-.29055.13482,5.0296,5.0296,0,0,1-1.50082.42433c-.3867.02508-.73369.03867-1.041.03867a2.23362,2.23362,0,0,1-1.23326-.347,1.26864,1.26864,0,0,1-.5393-1.15592c0-.07734.00628-.17977.01882-.30832s.01881-.24352.01881-.347a1.17426,1.17426,0,0,1,.11705-.38462c.07735-.17976.15887-.39192.25084-.63649q.13169-.36527.26964-.77026a3.7731,3.7731,0,0,0,.17141-.75094q-.03764-.34724-.26965-.347a1.9667,1.9667,0,0,0-.84656.347c-.38461.23046-.765.48129-1.13711.75094s-.70652.52048-1.00125.75145-.45568.35953-.48076.38566a4.49757,4.49757,0,0,1-.53929.51943,9.34728,9.34728,0,0,1-.84866.63649,6.63785,6.63785,0,0,1-.9239.51944,1.93934,1.93934,0,0,1-.77131.21216.97815.97815,0,0,1-.61663-.25083.82241.82241,0,0,1-.30727-.67412,1.23558,1.23558,0,0,1,.32608-.75145c.21948-.26965.45568-.54452.71278-.82775q.38567-.42328.71279-.80894a1.15537,1.15537,0,0,0,.32817-.73264c0-.10191-.08988-.17925-.26964-.231a1.663,1.663,0,0,0-.42433-.07682,3.31859,3.31859,0,0,0-1.30851.61611q-.96572.61769-2.10073,1.40676-1.13817.79012-2.2157,1.54053a18.20559,18.20559,0,0,1-1.6555,1.05978c-.54138,0-.83611-.07734-.88628-.231a2.13892,2.13892,0,0,1-.07734-.6553,1.76669,1.76669,0,0,1,.44314-1.0974,9.394,9.394,0,0,1,1.05977-1.1183c.4097-.37207.81521-.73787,1.21236-1.09739a6.45417,6.45417,0,0,0,.90509-.96362c-.02508-.02509-.14-.00575-.347.058a6.30606,6.30606,0,0,0-.65426.25031c-.22993.10295-.44941.19963-.65426.289-.20693.09041-.33444.14841-.3867.1735q-.42328.1936-1.09739.4238a7.11467,7.11467,0,0,0-1.0974.463,2.70943,2.70943,0,0,0-.42433.17349q-.38565.17245-.86746.42328-.48129.25085-1.00072.51944-.52048.27121-.8288.463c-.25606.12856-.4238.115-.50062-.03867-.07734-.12855-.01254-.25606.19283-.38565.128-.0763.39088-.231.7896-.462q.59652-.34647,1.29127-.75146.69293-.40448,1.2897-.75145.59886-.34647.82775-.462,1.58025-.6937,3.02463-1.3869,1.44543-.6937,2.5815-1.2526c.75877-.37207,1.36077-.67986,1.81227-.92442A6.80192,6.80192,0,0,1,118.81415,19.3336Z" transform="translate(-2.15381 -0.45525)"/><path class="cls-1" d="M148.87105,17.48475a1.00872,1.00872,0,0,1,.40552.173q.28845.17322.28846.36632a3.36977,3.36977,0,0,1-.26965,1.32889,6.69343,6.69343,0,0,1-.6553,1.1946,11.28143,11.28143,0,0,1-.78908,1.0211q-.40448.46247-.67516.80894a15.5706,15.5706,0,0,0-.32713,1.61839,8.15891,8.15891,0,0,1-.59678,1.96434,3.106,3.106,0,0,1-.231.44314q-.15521.25083-.30832.48181-.1552.232-.26964.40447a.70448.70448,0,0,0-.116.21216c.02508.07734.10869.10974.25083.09616a1.49932,1.49932,0,0,0,.44314-.116,3.33026,3.33026,0,0,0,.42328-.21112,1.61972,1.61972,0,0,0,.231-.15468q.96257-.5393,1.50291-.86642.53928-.32766,1.07858-.59782a.93281.93281,0,0,1,.52048-.15364c.08988.02613-.01986.19231-.32817.50062a4.20634,4.20634,0,0,1-.50063.40447q-.34645.25083-.77026.53929-.42486.29-.8288.5393-.40448.25239-.71278.40551c-.38462.20485-.74519.39715-1.07859.578q-.42485.23046-.80894.42328a3.26845,3.26845,0,0,1-.53929.231,1.98841,1.98841,0,0,0-.347.42433q-.30885.42327-.69293.94376-.38566.52047-.77131.96257a2.41983,2.41983,0,0,1-.61559.55915,3.48856,3.48856,0,0,1-1.13711.25083q-.71331.05645-1.25208.05749a.70323.70323,0,0,1-.38566-.1735,3.64887,3.64887,0,0,1-.30831-.25083.86588.86588,0,0,1-.03763-.82775,2.221,2.221,0,0,1,.57692-.73264,4.66435,4.66435,0,0,1,.77131-.5393q.38409-.21163.53929-.28845a2.90135,2.90135,0,0,0,.26965-.21217,1.44233,1.44233,0,0,1,.30832-.21216,1.56682,1.56682,0,0,0,.30831-.13482c.17872-.08989.37834-.17977.59678-.26965s.42432-.17349.61663-.24979a1.99522,1.99522,0,0,1,.32713-.116q.15363-.03919.53929-.52048a10.585,10.585,0,0,0,.81-1.19355,13.8377,13.8377,0,0,0,.78908-1.56039,6.54671,6.54671,0,0,0,.48181-1.6184.24869.24869,0,0,0-.116-.26964.34565.34565,0,0,0-.34594.03814,2.70847,2.70847,0,0,1-.38566.19283c-.231.12855-.46926.27644-.71278.44314q-.36684.25083-.44314.289a6.67149,6.67149,0,0,1-.7316.38461c-.231.10347-.463.21321-.694.32818s-.48808.24978-.77027.40447c-.28323.15363-.61663.33444-1.00229.53929-.20589.12855-.39819.23829-.578.32713a1.83226,1.83226,0,0,1-.462.17349c-.10242,0-.15363-.02508-.15363-.0763q0-.26964.44313-.52048.44209-.25083.55811-.32712.69293-.46248,1.52172-.98243.82774-.52127,1.65655-1.07911.82932-.55811,1.59906-1.13659a16.49745,16.49745,0,0,0,1.3869-1.15592q.26964-.5001.59782-1.11726.32608-.61611.65426-1.13659a6.64113,6.64113,0,0,1,.6553-.88628A.88092.88092,0,0,1,148.87105,17.48475Zm-6.3952,12.098a4.54725,4.54725,0,0,0-1.3869.53929,1.56843,1.56843,0,0,0-.55915.51943c-.06376.1411-.01882.232.13482.26965a1.11737,1.11737,0,0,0,.694-.1735,3.22407,3.22407,0,0,0,.61663-.51943A4.23191,4.23191,0,0,0,142.47585,29.58276Z" transform="translate(-2.15381 -0.45525)"/><path class="cls-1" d="M148.87105,26.462c-.20484.0763-.33967.05748-.40447-.05853q-.09563-.17244.25084-.40447a7.90713,7.90713,0,0,0,1.07858-.69292q.80893-.57849,1.77256-1.23327.96257-.65451,1.84885-1.27141.88575-.61611,1.27193-.84761a1.55831,1.55831,0,0,1,.44314-.289,3.4247,3.4247,0,0,0,.59678-.3658q.69448-.53929,1.3869-1.11777.69448-.57771,1.3869-1.07859a9.343,9.343,0,0,1,1.36808-.82827,3.03151,3.03151,0,0,1,1.32942-.32765c.07734,0,.1411.0648.19231.19283a1.13472,1.13472,0,0,1,.07734.4238,1.01693,1.01693,0,0,1-.3658.67411q-.36684.36686-.77131.75146-.40448.38565-.7316.73212a.82755.82755,0,0,0-.28846.65478c.05017.02613.19858-.00575.44209-.09615q.36685-.13483.92495-.32765.55811-.192,1.21341-.3658a4.29766,4.29766,0,0,1,1.34927-.13483q.42328.03842.59678.578a2.98133,2.98133,0,0,1,.17349.73159,3.08342,3.08342,0,0,1-.694,1.9842,10.63519,10.63519,0,0,1-1.50187,1.54106q-.80894.67412-1.50291,1.19459-.69293.52049-.694.98243,0,.46248.42433.462a6.51571,6.51571,0,0,0,2.27318-.48076q1.2714-.48129,2.38814-1.0211,1.31059-.65531,2.65883-1.46424c.05121,0,.07734.01359.07734.03867v.03867q0,.26964-.55915.71278a11.8967,11.8967,0,0,1-1.42557.94377q-.86694.5001-1.90633,1.00124-1.041.50166-2.00353.88628-.96414.38409-1.73389.63544a4.16148,4.16148,0,0,1-1.11725.25084h-.42433a2.82763,2.82763,0,0,1-.5581-.05749,1.75683,1.75683,0,0,1-.50167-.17349.346.346,0,0,1-.21112-.30832,2.3689,2.3689,0,0,1,.65426-1.61787,10.55211,10.55211,0,0,1,1.46424-1.34928q.80894-.61454,1.46424-1.17473a1.50375,1.50375,0,0,0,.6553-1.05977c0-.05069-.00731-.14058-.01986-.26965a2.11013,2.11013,0,0,0-.07629-.38513.98032.98032,0,0,0-.21216-.3658.58719.58719,0,0,0-.463-.1735,3.45972,3.45972,0,0,0-.9239.15416,9.09446,9.09446,0,0,0-1.11726.40447,12.16136,12.16136,0,0,0-1.15592.578,9.13225,9.13225,0,0,0-1.07859.71279,4.953,4.953,0,0,0-1.38794,1.40571,3.588,3.588,0,0,1-1.23222,1.21445,8.95714,8.95714,0,0,0-1.40676,1.11726q-.82932.76974-1.81018,1.75269l-2.13835,2.13836q-1.157,1.15541-2.42786,2.27318a21.46515,21.46515,0,0,0-2.33066,2.38919q-1.05978,1.2714-2.2157,2.54282A22.73443,22.73443,0,0,1,139.60589,40.91q-.86694.80893-1.75374,1.61787-1.34823,1.34823-2.061,2.1185-.71175.77132-1.25208,1.3106a12.8021,12.8021,0,0,1-1.09844.98243q-.55811.4421-1.52173,1.0974-.53928.38565-1.19459.8288a9.73007,9.73007,0,0,1-.96257.59677.73562.73562,0,0,1-.63545.01986.34372.34372,0,0,1-.21216-.48181,4.53756,4.53756,0,0,1,1.11725-1.59906,24.249,24.249,0,0,1,2.02235-1.83q1.13658-.925,2.25436-1.83a18.96954,18.96954,0,0,0,1.81018-1.63774q1.92829-2.08035,3.93077-4.10321,2.00353-2.02235,4.1607-3.98721,1.2338-1.15541,2.38815-2.38919,1.041-1.15539,2.08087-2.42681a15.84094,15.84094,0,0,1,2.27318-2.27318q.38407-.30728.61663-.50062.23045-.19283.44314-.3658.21164-.174.44314-.40551.23045-.23046.61663-.578c.05016-.05016,0-.14-.15468-.2686a.42118.42118,0,0,0-.53929,0,14.67894,14.67894,0,0,1-2.2157,1.13607Q149.29486,26.26914,148.87105,26.462Z" transform="translate(-2.15381 -0.45525)"/><path class="cls-1" d="M175.8022,19.0258a1.19011,1.19011,0,0,1,.84761.289.83.83,0,0,1,.30832.59677,3.14175,3.14175,0,0,1-.44314,1.65707,5.21042,5.21042,0,0,1-1.13711,1.30956,11.62543,11.62543,0,0,1-1.54054,1.0791q-.84813.50089-1.61788,1.00177a5.22847,5.22847,0,0,1-.88627.40447q-.6553.25083-1.3869.578a13.272,13.272,0,0,0-1.29075.6553c-.37311.21844-.55915.42956-.55915.63545a.37123.37123,0,0,0,.17349.28846,1.07292,1.07292,0,0,0,.38566.19335c.14109.03867.28219.07107.42328.09615a1.90335,1.90335,0,0,0,.2895.03867,12.80116,12.80116,0,0,0,3.33191-.53929,17.94785,17.94785,0,0,0,3.94958-1.65759,1.16171,1.16171,0,0,1,.53929-.17245c.10243.01254.15468.04494.15468.09615a.45.45,0,0,1-.13482.231,1.99691,1.99691,0,0,1-.2895.26964A16.04371,16.04371,0,0,1,173.3942,28.06a12.30077,12.30077,0,0,1-4.79719.86746,2.1417,2.1417,0,0,1-1.61787-.50062,5.26819,5.26819,0,0,1-.84761-1.3106.57363.57363,0,0,1,0-.42328,5.48247,5.48247,0,0,1,.231-.694,8.47244,8.47244,0,0,1,.36685-.79012q.21008-.40448.40447-.75041a11.731,11.731,0,0,1,2.21465-2.60083,15.45809,15.45809,0,0,1,2.71631-1.946,6.72732,6.72732,0,0,1,1.9262-.71279A9.82133,9.82133,0,0,1,175.8022,19.0258Zm-1.11725,1.61788a3.6389,3.6389,0,0,0-1.483.40447,10.32626,10.32626,0,0,0-1.73389,1.04043,13.66145,13.66145,0,0,0-1.58025,1.34876,5.8732,5.8732,0,0,0-1.05873,1.36808.38724.38724,0,0,0-.07734.30728.25194.25194,0,0,0,.1735.116.84535.84535,0,0,0,.4818-.116,7.26566,7.26566,0,0,0,.75041-.32713q.52049-.24927,1.1946-.61664.67412-.36527,1.3869-.7896.71331-.42328,1.3106-.82827a7.75906,7.75906,0,0,0,.98243-.77079q.38409-.36528.38462-.5973Q175.41655,20.64447,174.68495,20.64368Z" transform="translate(-2.15381 -0.45525)"/><path class="cls-1" d="M184.47163,21.02934c.0763,0,.186.00627.32713.01881a.47749.47749,0,0,1,.28846.09667,2.61507,2.61507,0,0,1,.26965.5393q.07682.23123.15468.50062h.03867c.02508,0,.03867.00679.03867.01933,0,.01359.01254.01934.03762.01934a.2934.2934,0,0,0,.21216-.09616l.21217-.21216a1.32113,1.32113,0,0,1,.28846-.21164.91231.91231,0,0,1,.44314-.09667,1.75942,1.75942,0,0,1,.42432.058.42662.42662,0,0,1,.30832.32765.80065.80065,0,0,1,.03867.53929,1.1983,1.1983,0,0,1-.25084.42381,3.52706,3.52706,0,0,1-.38565.3658,1.24507,1.24507,0,0,0-.32713.40447,5.41463,5.41463,0,0,0-.75146,1.29074,5.635,5.635,0,0,0-.32712,1.59907c-.02613.12855.05121.21216.231.25083a.80922.80922,0,0,0,.38566.01881,12.36451,12.36451,0,0,0,1.29075-.38566,7.4,7.4,0,0,0,.88523-.38461q.36684-.19283.6553-.3658a4.62472,4.62472,0,0,1,.55915-.2895c.17872-.07734.28846-.06375.32713.03867s-.00627.21844-.13482.347a6.062,6.062,0,0,1-1.65655,1.13606q-.88733.40447-1.54158.71279a6.22784,6.22784,0,0,1-1.0211.347,4.80987,4.80987,0,0,1-.71279.15363.6867.6867,0,0,1-.44209-.24979c-.16827-.16722-.277-.27591-.32817-.32817a1.23029,1.23029,0,0,1-.03867-.53929,4.24272,4.24272,0,0,1,.116-.59678q.07682-.28845.15363-.52048a1.22937,1.22937,0,0,0,.07734-.34594.33194.33194,0,0,0-.07734-.21216.12818.12818,0,0,0-.1923-.01986.43588.43588,0,0,1-.116.07734c-.05122.02613-.10243.05226-.15364.07734a.57784.57784,0,0,0-.15364.115,2.40818,2.40818,0,0,1-.30831.32817,5.65925,5.65925,0,0,1-.463.3658q-.38565.26964-.88628.63544-.5001.36686-1.0211.67412c-.34594.20589-.66784.37938-.96257.52048a1.76525,1.76525,0,0,1-.67412.21216,3.99676,3.99676,0,0,1-.59782-.05853,4.21683,4.21683,0,0,1-.75041-.1923,3.266,3.266,0,0,1-.71278-.347.87693.87693,0,0,1-.40551-.48076,1.84427,1.84427,0,0,1,.2895-1.21445,6.12069,6.12069,0,0,1,.98243-1.40572,10.44756,10.44756,0,0,1,1.88752-1.46424q1.11778-.69371,2.08087-1.23274A14.12339,14.12339,0,0,1,183.508,21.299,2.90885,2.90885,0,0,1,184.47163,21.02934Zm-.61663,1.772a1.51054,1.51054,0,0,0-.59782.21164q-.40448.21243-.90509.48181a11.03085,11.03085,0,0,0-1.07858.65426c-.36058.28427-.65531.53406-.88628.7525s-.37312.35325-.42433.40447q-.42328.38565-.75041.73159c-.21843.231-.30309.42433-.25083.578q.07682.23044.42328.231a1.22729,1.22729,0,0,0,.463-.115c.17872-.07734.37207-.15468.578-.232.20485-.10137.43582-.21738.69293-.34594s.50166-.2571.73264-.38565q.65373-.42328,1.11725-.79013c.30832-.24352.52571-.417.6553-.51943a2.67251,2.67251,0,0,1,.38462-.38566.91615.91615,0,0,0,.30831-.46247.91963.91963,0,0,0,.13482-.3658.48849.48849,0,0,0-.01881-.25031Q184.39377,22.80138,183.855,22.80137Z" transform="translate(-2.15381 -0.45525)"/><path class="cls-1" d="M214.0219,5.3094a1.19253,1.19253,0,0,1,.59782.17349.54171.54171,0,0,1,.21112.30832.72068.72068,0,0,1-.01881.36579,2.16459,2.16459,0,0,1-.13483.347,8.19385,8.19385,0,0,1-1.63773,1.71455q-1.13659.94455-2.09969,1.83-.42485.42407-.80893.80894-.38567.38565-.84761.80946-1.07859,1.00176-1.94605,1.88752-.86694.88733-1.67536,1.71455-.80894.82932-1.6764,1.6184-.86694.79012-1.94605,1.59854c-.05121.05226-.15364.16095-.30727.32765-.15468.16722-.30832.34072-.463.52q.38565-.11523,1.27194-.3658a6.11441,6.11441,0,0,1,1.65654-.25031,2.12739,2.12739,0,0,1,.98243.1923.64977.64977,0,0,1,.3658.61664A3.2355,3.2355,0,0,1,205.18,21.183a2.92951,2.92951,0,0,1-.98243,1.00177,3.60963,3.60963,0,0,1-.694.289c-.28219.0904-.57169.18028-.86642.26964q-.44367.13562-.88628.26965a3.18269,3.18269,0,0,0-.75146.32765,1.27363,1.27363,0,0,1,.347.55863,2.181,2.181,0,0,1,.07734.55915,1.55278,1.55278,0,0,1-.25083.82775,6.48085,6.48085,0,0,1-.578.79012q-.32766.38567-.578.71279a1.01942,1.01942,0,0,0-.25083.59677.54149.54149,0,0,0,.32817.55915,3.47633,3.47633,0,0,0,1.17474.13483,8.34352,8.34352,0,0,0,1.8499-.19231,11.87487,11.87487,0,0,0,1.56039-.463,9.19636,9.19636,0,0,0,1.29075-.59677q.57692-.32766,1.03991-.59782.30728-.19126.69293-.40447a1.524,1.524,0,0,1,.50166-.21112c.12751,0,.19231.0763.19231.231q0,.07682-.42433.3658c-.28218.1923-.61558.41805-1.00124.67411a19.59266,19.59266,0,0,1-2.00353,1.1946,14.82991,14.82991,0,0,1-1.92619.8476q-.73212.23046-1.81123.50063a10.7624,10.7624,0,0,1-2.58149.26964,1.65913,1.65913,0,0,1-1.19355-.40447,1.22561,1.22561,0,0,1-.42433-.90509,1.31685,1.31685,0,0,1,.01986-.231c.01254-.07734.03135-.16723.05748-.26965a1.87534,1.87534,0,0,1,.28846-.50167q.29-.42327.61663-.90509.32766-.48129.61663-.88628a1.69824,1.69824,0,0,0,.28846-.4818.54371.54371,0,0,0,.07734-.30728v-.26964c0-.07734-.06375-.14841-.1923-.21321a.78264.78264,0,0,0-.26965-.09615,1.80618,1.80618,0,0,0-.77027.232,2.21746,2.21746,0,0,1-1.00229.231,2.05313,2.05313,0,0,1-.44313-.05748,3.064,3.064,0,0,1-.44314-.13587,10.898,10.898,0,0,0-.92495.84866q-.57692.57692-1.11726,1.17473-.53928.5973-1.00124,1.0974-.46247.50166-.578.61663-.23046.232-.71279.75146-.48285.52047-1.00124,1.07858-.52049.55811-.96362.96362-.44366.40446-.59677.40447-.38567,0-.38566-.42328a1.92583,1.92583,0,0,1,.42328-.8288q.42486-.5973.96362-1.27193.5393-.67412,1.09844-1.29075.5581-.61455.78908-.88523a3.69008,3.69008,0,0,1,.44314-.52048q.44367-.48129.96362-1.03992.52048-.55811.96257-1.041.44367-.48049.40552-.52-.61768.30884-1.52277.77079-.90457.46246-1.77151.88628c-.578.28323-1.09217.51943-1.54158.71278a3.137,3.137,0,0,1-.86642.28846c-.15468,0-.232-.06375-.232-.19231,0-.07734.0648-.1599.19335-.25083.12855-.08988.26964-.17872.42328-.26965.15468-.08988.35953-.19857.61663-.32712a19.0697,19.0697,0,0,0,1.7527-.98244q1.099-.67412,2.38919-1.541t2.639-1.84938q1.34823-.983,2.54283-1.83c.12855-.10242.28219-.23724.463-.40446.17871-.16723.37206-.347.578-.53982.20484-.1923.40447-.38513.59677-.578.19231-.19231.35221-.3658.48181-.52q.42328-.5001,1.11725-1.23274.69294-.73134,2.04221-2.08087,1.73388-1.7331,3.35176-3.54459a25.80628,25.80628,0,0,1,3.775-3.42858,12.79814,12.79814,0,0,0,1.13711-.92495A1.51427,1.51427,0,0,1,214.0219,5.3094ZM198.649,22.41624q.19282-.03841.36684-.058c.115-.01254.19858-.01933.24979-.01933a5.65339,5.65339,0,0,1,.55915.09667,1.86885,1.86885,0,0,1,.40447.13482,2.35842,2.35842,0,0,0,.80893-.17349,4.23231,4.23231,0,0,0,.86643-.44314,3.08352,3.08352,0,0,0,.67516-.5973,1.01657,1.01657,0,0,0,.26964-.63544.40774.40774,0,0,0-.15468-.347,1.25924,1.25924,0,0,0-.30832-.17349.78967.78967,0,0,0-.26964-.05748h-.07734a4.0631,4.0631,0,0,0-1.77151.50062,6.64184,6.64184,0,0,0-2.08088,1.84937Z" transform="translate(-2.15381 -0.45525)"/></svg>