<svg xmlns="http://www.w3.org/2000/svg" viewBox="6737 6033 18 18">
  <defs>
    <style>
      .cls-1 {
        fill: #a8a8a8;
      }
    </style>
  </defs>
  <path id="Path_179" data-name="Path 179" class="cls-1" d="M17.811,15.331l-3.2-3.18a6.637,6.637,0,0,0,1.37-4.2A7.922,7.922,0,0,0,7.992,0a7.95,7.95,0,1,0,0,15.9,8.071,8.071,0,0,0,4.339-1.249l3.2,3.18a.554.554,0,0,0,.8,0l1.6-1.59A.854.854,0,0,0,17.811,15.331Zm-9.819-1.7A5.638,5.638,0,0,1,2.283,7.95,5.638,5.638,0,0,1,7.992,2.271,5.638,5.638,0,0,1,13.7,7.95,5.638,5.638,0,0,1,7.992,13.628Z" transform="translate(6737 6033)"/>
</svg>
