<svg xmlns="http://www.w3.org/2000/svg" viewBox="6302 6184 16 16">
  <defs>
    <style>
      .cls-1 {
        fill: #fff;
      }
    </style>
  </defs>
  <g id="Group_200" data-name="Group 200" transform="translate(5555 6001)">
    <path id="Path_272" data-name="Path 272" d="M8,0C3.6,0,0,3.1,0,7a6.438,6.438,0,0,0,2.1,4.7L0,16l5-2.5A9.427,9.427,0,0,0,8,14c4.4,0,8-3.1,8-7S12.4,0,8,0Z" transform="translate(747 183)"/>
    <g id="Group_199" data-name="Group 199" transform="translate(750.779 186.502)">
      <path id="Path_271" data-name="Path 271" class="cls-1" d="M1.957,6.522C.826,6.522,0,5.7,0,4.13A4.526,4.526,0,0,1,3.174,0l.391.652A3.944,3.944,0,0,0,1.217,3.7a1.537,1.537,0,0,1,.826-.261c1.043,0,1.522.522,1.522,1.565A1.484,1.484,0,0,1,1.957,6.522Zm4.391,0c-1.13,0-1.957-.826-1.957-2.348A4.526,4.526,0,0,1,7.565.043L7.957.7a3.885,3.885,0,0,0-2.3,3.043,1.61,1.61,0,0,1,.826-.3C7.522,3.435,8,3.957,8,5A1.547,1.547,0,0,1,6.348,6.522Z"/>
    </g>
  </g>
</svg>
