<svg xmlns="http://www.w3.org/2000/svg" viewBox="6338 6184 16 16">
  <g id="Group_76" data-name="Group 76" transform="translate(6338 6184)">
    <path id="Path_186" data-name="Path 186" d="M15,3H1A.945.945,0,0,0,0,4V9a.945.945,0,0,0,1,1H2V7H14v3h1a.945.945,0,0,0,1-1V4A.945.945,0,0,0,15,3ZM2,5H1V4H2Z"/>
    <path id="Path_187" data-name="Path 187" d="M12,13H10v2H4V8H3v8h7l3-3V8H12Z"/>
    <path id="Path_188" data-name="Path 188" d="M4,1h8V2h1V0H3V2H4Z"/>
    <rect id="Rectangle_135" data-name="Rectangle 135" width="6" height="1" transform="translate(5 9)"/>
    <rect id="Rectangle_136" data-name="Rectangle 136" width="4" height="1" transform="translate(5 11)"/>
  </g>
</svg>
