<svg xmlns="http://www.w3.org/2000/svg" xmlns:xlink="http://www.w3.org/1999/xlink" viewBox="6710 6140 44 44">
  <defs>
    <style>
      .cls-1 {
        fill: #fff;
      }

      .cls-2 {
        fill: #a56a24;
      }

      .cls-3 {
        filter: url(#Ellipse_1);
      }
    </style>
    <filter id="Ellipse_1" x="6710" y="6140" width="44" height="44" filterUnits="userSpaceOnUse">
      <feOffset dy="2" input="SourceAlpha"/>
      <feGaussianBlur stdDeviation="2" result="blur"/>
      <feFlood flood-opacity="0.4"/>
      <feComposite operator="in" in2="blur"/>
      <feComposite in="SourceGraphic"/>
    </filter>
  </defs>
  <g id="Group_28" data-name="Group 28" transform="translate(2467 2317)">
    <g class="cls-3" transform="matrix(1, 0, 0, 1, -2467, -2317)">
      <circle id="Ellipse_1-2" data-name="Ellipse 1" class="cls-1" cx="16" cy="16" r="16" transform="translate(6716 6144)"/>
    </g>
    <path id="Path_155" data-name="Path 155" class="cls-2" d="M12,0A12.107,12.107,0,0,0,0,12,12.107,12.107,0,0,0,12,24,12.107,12.107,0,0,0,24,12,12.107,12.107,0,0,0,12,0Zm6.982,15.927-3.055,3.055L12,15.055,8.073,18.982,5.018,15.927,8.945,12,5.018,8.073,8.073,5.018,12,8.945l3.927-3.927,3.055,3.055L15.055,12Z" transform="translate(4253 3831)"/>
  </g>
</svg>
